<?xml version="1.0" encoding="UTF-8"?>
<svg xmlns="http://www.w3.org/2000/svg" width="256" height="256" viewBox="0 0 229 261">
  <title>MP3 Ship Icon</title>
  <g fill="#111111">
    <path d="M 203 154 L 156 161 L 109 162 L 109 57 L 105 52 L 102 55 L 102 162 L 0 162 L 25 193 L 39 206 L 81 201 L 116 209 L 142 202 L 167 202 L 189 177 Z"/>
    <path d="M 99 65 L 85 82 L 65 109 L 61 113 L 48 131 L 44 135 L 37 145 L 38 146 L 99 146 Z"/>
    <path d="M 112 79 L 112 146 L 155 146 L 156 145 L 155 142 L 153 140 L 153 139 L 151 137 L 151 136 L 149 134 L 149 133 L 137 116 L 136 113 L 134 111 L 134 110 L 132 108 L 132 107 L 130 105 L 130 104 L 128 102 L 128 101 L 126 99 L 126 98 L 124 96 L 122 92 L 119 89 L 119 88 L 117 86 L 115 82 Z"/>
    <path d="M 14 213 L 18 217 L 29 221 L 47 221 L 63 216 L 77 215 L 104 225 L 119 225 L 143 217 L 157 217 L 173 222 L 185 222 L 195 218 L 195 217 L 179 218 L 156 209 L 142 209 L 118 217 L 105 217 L 91 211 L 76 207 L 64 208 L 39 216 L 26 216 Z"/>
  </g>
</svg>
